<svg width="24" height="24" viewBox="0 0 24 24" fill="none" xmlns="http://www.w3.org/2000/svg">
<rect width="24" height="24" fill="white"/>
<path d="M13 19.5C13.2761 19.5 13.5 19.7239 13.5 20C13.5 20.2761 13.2761 20.5 13 20.5H4C3.72386 20.5 3.5 20.2761 3.5 20C3.5 19.7239 3.72386 19.5 4 19.5H13ZM6 17.5C6.27614 17.5 6.5 17.7239 6.5 18C6.5 18.2761 6.27614 18.5 6 18.5H4C3.72386 18.5 3.5 18.2761 3.5 18C3.5 17.7239 3.72386 17.5 4 17.5H6ZM11 17.5C11.2761 17.5 11.5 17.7239 11.5 18C11.5 18.2761 11.2761 18.5 11 18.5H8C7.72386 18.5 7.5 18.2761 7.5 18C7.5 17.7239 7.72386 17.5 8 17.5H11ZM21 17.5C21.2761 17.5 21.5 17.7239 21.5 18C21.5 18.2761 21.2761 18.5 21 18.5H13C12.7239 18.5 12.5 18.2761 12.5 18C12.5 17.7239 12.7239 17.5 13 17.5H21ZM9 15.5C9.27614 15.5 9.5 15.7239 9.5 16C9.5 16.2761 9.27614 16.5 9 16.5H4C3.72386 16.5 3.5 16.2761 3.5 16C3.5 15.7239 3.72386 15.5 4 15.5H9ZM21 15.5C21.2761 15.5 21.5 15.7239 21.5 16C21.5 16.2761 21.2761 16.5 21 16.5H11C10.7239 16.5 10.5 16.2761 10.5 16C10.5 15.7239 10.7239 15.5 11 15.5H21ZM15 13.5C15.2761 13.5 15.5 13.7239 15.5 14C15.5 14.2761 15.2761 14.5 15 14.5H4C3.72386 14.5 3.5 14.2761 3.5 14C3.5 13.7239 3.72386 13.5 4 13.5H15ZM21 13.5C21.2761 13.5 21.5 13.7239 21.5 14C21.5 14.2761 21.2761 14.5 21 14.5H17C16.7239 14.5 16.5 14.2761 16.5 14C16.5 13.7239 16.7239 13.5 17 13.5H21ZM10 4C10.5523 4 11 4.44772 11 5V11C11 11.5523 10.5523 12 10 12H4C3.44772 12 3 11.5523 3 11V5C3 4.44772 3.44772 4 4 4H10ZM21 10.5C21.2761 10.5 21.5 10.7239 21.5 11C21.5 11.2761 21.2761 11.5 21 11.5H13C12.7239 11.5 12.5 11.2761 12.5 11C12.5 10.7239 12.7239 10.5 13 10.5H21ZM4 11H10V5H4V11ZM15 8.5C15.2761 8.5 15.5 8.72386 15.5 9C15.5 9.27614 15.2761 9.5 15 9.5H13C12.7239 9.5 12.5 9.27614 12.5 9C12.5 8.72386 12.7239 8.5 13 8.5H15ZM21 8.5C21.2761 8.5 21.5 8.72386 21.5 9C21.5 9.27614 21.2761 9.5 21 9.5H17C16.7239 9.5 16.5 9.27614 16.5 9C16.5 8.72386 16.7239 8.5 17 8.5H21ZM17 6.5C17.2761 6.5 17.5 6.72386 17.5 7C17.5 7.27614 17.2761 7.5 17 7.5H13C12.7239 7.5 12.5 7.27614 12.5 7C12.5 6.72386 12.7239 6.5 13 6.5H17ZM21 6.5C21.2761 6.5 21.5 6.72386 21.5 7C21.5 7.27614 21.2761 7.5 21 7.5H19C18.7239 7.5 18.5 7.27614 18.5 7C18.5 6.72386 18.7239 6.5 19 6.5H21ZM21 4.5C21.2761 4.5 21.5 4.72386 21.5 5C21.5 5.27614 21.2761 5.5 21 5.5H13C12.7239 5.5 12.5 5.27614 12.5 5C12.5 4.72386 12.7239 4.5 13 4.5H21Z" fill="#1D1D1D"/>
</svg>
