<svg width="24" height="24" viewBox="0 0 24 24" fill="none" xmlns="http://www.w3.org/2000/svg">
<rect width="24" height="24" fill="white"/>
<path d="M3.49996 14C7.39312 10.2761 13.1784 4.74233 14.6498 3.33495C14.8462 3.14706 15.1535 3.15358 15.3457 3.34578L17 5M3.49996 14C4.28101 14.781 5.49996 16 5.49996 16M3.49996 14C2.49995 16 2.36132 19.6932 2.36132 19.6932M9.49996 20C13.3796 16.289 19.1384 10.7807 20.6343 9.34972C20.837 9.15584 20.8368 8.83684 20.6385 8.6385L19 7M9.49996 20C8.71891 19.219 7.49996 18 7.49996 18M9.49996 20C7.49995 21 3.65783 21.1684 3.65783 21.1684M7.49996 18L19 7M7.49996 18L5.49996 16M19 7L17 5M17 5L5.49996 16M2.50006 21C2.33524 20.7713 2.36132 19.6932 2.36132 19.6932M2.50006 21C2.66494 21.2287 3.65783 21.1684 3.65783 21.1684M2.50006 21C2.89434 20.5825 3.00958 20.4308 3.00958 20.4308M2.36132 19.6932L3.00958 20.4308M3.65783 21.1684L3.00958 20.4308" stroke="#1D1D1D"/>
</svg>
