<svg width="24" height="24" viewBox="0 0 24 24" fill="none" xmlns="http://www.w3.org/2000/svg">
<rect width="24" height="24" fill="white"/>
<path d="M4 14.5C4.27614 14.5 4.5 14.7239 4.5 15V19C4.5 19.2761 4.72386 19.5 5 19.5H9C9.27614 19.5 9.5 19.7239 9.5 20C9.5 20.2761 9.27614 20.5 9 20.5H5C4.17157 20.5 3.5 19.8284 3.5 19V15C3.5 14.7239 3.72386 14.5 4 14.5ZM20 14.5C20.2761 14.5 20.5 14.7239 20.5 15V19C20.5 19.8284 19.8284 20.5 19 20.5H15C14.7239 20.5 14.5 20.2761 14.5 20C14.5 19.7239 14.7239 19.5 15 19.5H19C19.2761 19.5 19.5 19.2761 19.5 19V15C19.5 14.7239 19.7239 14.5 20 14.5ZM15 8C15.5523 8 16 8.44772 16 9V14C16 14.5523 15.5523 15 15 15H9C8.44772 15 8 14.5523 8 14V9C8 8.44772 8.44772 8 9 8H15ZM9 14H15V9H9V14ZM9 3.5C9.27614 3.5 9.5 3.72386 9.5 4C9.5 4.27614 9.27614 4.5 9 4.5H5C4.72386 4.5 4.5 4.72386 4.5 5V9C4.5 9.27614 4.27614 9.5 4 9.5C3.72386 9.5 3.5 9.27614 3.5 9V5C3.5 4.17157 4.17157 3.5 5 3.5H9ZM19 3.5C19.8284 3.5 20.5 4.17157 20.5 5V9C20.5 9.27614 20.2761 9.5 20 9.5C19.7239 9.5 19.5 9.27614 19.5 9V5C19.5 4.72386 19.2761 4.5 19 4.5H15C14.7239 4.5 14.5 4.27614 14.5 4C14.5 3.72386 14.7239 3.5 15 3.5H19Z" fill="#1D1D1D"/>
</svg>
