<svg width="24" height="24" viewBox="0 0 24 24" fill="none" xmlns="http://www.w3.org/2000/svg">
<rect width="24" height="24" fill="white"/>
<path d="M6.85714 9.85714H4C3.44772 9.85714 3 10.3049 3 10.8571V20C3 20.5523 3.44772 21 4 21H13.1429C13.6951 21 14.1429 20.5523 14.1429 20V17.1429M6.85714 9.85714V7.42857C6.85714 6.87629 7.30486 6.42857 7.85714 6.42857H10.2857M6.85714 9.85714V16.1429C6.85714 16.6951 7.30486 17.1429 7.85714 17.1429H14.1429M14.1429 17.1429H16.5714C17.1237 17.1429 17.5714 16.6951 17.5714 16.1429V13.7143M17.5714 13.7143H20C20.5523 13.7143 21 13.2666 21 12.7143V4C21 3.44771 20.5523 3 20 3H11.2857C10.7334 3 10.2857 3.44772 10.2857 4V6.42857M17.5714 13.7143H11.2857C10.7334 13.7143 10.2857 13.2666 10.2857 12.7143V6.42857" stroke="#1D1D1D" stroke-linecap="round"/>
</svg>
