<svg width="24" height="24" viewBox="0 0 24 24" fill="none" xmlns="http://www.w3.org/2000/svg">
<rect width="24" height="24" fill="white"/>
<path d="M21.5 3C21.5 4.32584 21.1073 6.40815 20.1279 8.23633C19.4092 9.57783 18.3502 10.821 16.8662 11.5H20.1348C20.3077 11.2013 20.63 11 21 11C21.5523 11 22 11.4477 22 12C22 12.5523 21.5523 13 21 13C20.63 13 20.3077 12.7987 20.1348 12.5H15.5V15H10V13.0176C7.76369 13.1711 6.43042 14.3559 5.625 15.8057C4.7437 17.3921 4.5 19.2979 4.5 20.5H3.5C3.5 19.2021 3.75634 17.1079 4.75 15.3193C5.4076 14.1357 6.39011 13.0882 7.81055 12.5H4.86523C4.69227 12.7987 4.36997 13 4 13C3.44772 13 3 12.5523 3 12C3 11.4477 3.44772 11 4 11C4.36997 11 4.69227 11.2013 4.86523 11.5H10V9.5H15.5V10.9062C17.2279 10.5169 18.4389 9.27233 19.2471 7.76367C20.1426 6.09192 20.5 4.17409 20.5 3H21.5ZM11 14H14.5V10.5H11V14Z" fill="#1D1D1D"/>
</svg>
